<svg xmlns="http://www.w3.org/2000/svg" viewBox="0 0 512 512" width="1024" height="1024">
  <defs>
    <!-- Gradiente que replica el fondo rojo oscuro de la imagen -->
    <radialGradient id="bg" cx="42%" cy="38%" r="62%">
      <stop offset="0%"   stop-color="#c0392b"/>
      <stop offset="55%"  stop-color="#922b21"/>
      <stop offset="100%" stop-color="#641e16"/>
    </radialGradient>
  </defs>

  <!-- Fondo cuadrado redondeado -->
  <rect width="512" height="512" rx="112" fill="url(#bg)"/>

  <!-- Llama Ionicons 'flame' en blanco, centrada con padding -->
  <g transform="translate(56, 32) scale(0.78)">
    <path fill="white"
      d="M394.23 197.56a300.43 300.43 0 00-53.37-90C301.2 61.65 249.05 32 208 32
         a16 16 0 00-15.48 20c13.87 53-14.88 97.07-45.31 143.72
         C122 234.36 96 274.27 96 320c0 88.22 71.78 160 160 160s160-71.78 160-160
         c0-43.3-7.32-84.49-21.77-122.44z
         m-105.9 221.13C278 429.69 265.05 432 256 432s-22-2.31-32.33-13.31
         S208 390.24 208 368c0-25.14 8.82-44.28 17.34-62.78
         4.95-10.74 10-21.67 13-33.37a8 8 0 0112.49-4.51
         A126.48 126.48 0 01275 292c18.17 24 29 52.42 29 76
         0 22.24-5.42 39.77-15.67 50.69z"/>
  </g>
</svg>
